<svg xmlns="http://www.w3.org/2000/svg" xmlns:xlink="http://www.w3.org/1999/xlink" fill="none" version="1.1" width="60" height="60" viewBox="0 0 60 60"><g><g><rect x="27.70969009399414" y="17.502239227294922" width="4.999998569488525" height="24.995521545410156" rx="0" fill="#E6AC00" fill-opacity="1" style="mix-blend-mode:passthrough"/></g><g><path d="M43.5914,4.34332L43.5914,3.25748C39.5054,1.18259,34.8925,0,30,0C13.4301,0,0,13.4277,0,29.9946C0,39.724,4.6344,48.3569,11.8064,53.8398L11.8064,47.1313C7.59139,42.659,4.99999,36.6279,4.99999,29.9946C4.99999,16.1906,16.1935,4.9991,30,4.9991C33.0215,4.9991,35.914,5.53664,38.5914,6.52572L38.5914,26.8447L43.5914,26.8447L43.5914,4.34332Z" fill="#E6AC00" fill-opacity="1" style="mix-blend-mode:passthrough"/></g><g><path d="M48.59135179748535,6.46121883392334L48.59135179748535,13.28795883392334C52.58065179748535,17.71721883392334,54.99995179748535,23.57641883392334,54.99995179748535,29.99461883392334C54.99995179748535,43.79861883392334,43.80645179748535,54.99021883392334,29.999951797485352,54.99021883392334C27.129051797485353,54.99021883392334,24.376321797485353,54.50641883392334,21.806441797485352,53.61411883392334L21.806441797485352,33.080118833923336L16.80645179748535,33.080118833923336L16.80645179748535,55.58141883392334L16.80645179748535,56.94681883392334C20.784941797485352,58.90341883392334,25.268811797485352,60.00001883392334,29.999951797485352,60.00001883392334C46.569851797485356,60.00001883392334,59.99995179748535,46.57231883392334,59.99995179748535,30.00541883392334C60.010751797485355,20.44791883392334,55.54835179748535,11.95483883392334,48.59135179748535,6.46121883392334Z" fill="#E6AC00" fill-opacity="1" style="mix-blend-mode:passthrough"/></g></g></svg>