<svg xmlns="http://www.w3.org/2000/svg" xmlns:xlink="http://www.w3.org/1999/xlink" fill="none" version="1.1" width="80" height="92" viewBox="0 0 80 92"><defs><linearGradient x1="1" y1="0.5" x2="0" y2="0.5" id="master_svg0_696_603"><stop offset="0%" stop-color="#2DC08E" stop-opacity="1"/><stop offset="100%" stop-color="#F92855" stop-opacity="1"/></linearGradient></defs><g><g style="mix-blend-mode:passthrough"><g style="mix-blend-mode:passthrough"><path d="M28.148808359375,51.7280513671875L22.963588359375,51.7280513671875C21.572648359375002,51.7280513671875,20.445068359375,52.6220613671875,20.445068359375,53.7248813671875L20.445068359375,72.3979013671875C20.445068359375,73.5007013671875,21.572648359375002,74.39470136718751,22.963588359375,74.39470136718751L33.926568359375,74.39470136718751C35.317468359375,74.39470136718751,36.445068359375,73.5007013671875,36.445068359375,72.3979013671875L36.445068359375,53.7248813671875C36.445068359375,52.6220613671875,35.317468359375,51.7280513671875,33.926568359375,51.7280513671875L28.741398359374998,51.7280513671875L28.741398359374998,46.2963223671875C28.741398359374998,46.1665793671875,28.608748359375,46.0614013671875,28.445108359375,46.0614013671875C28.281468359375,46.0614013671875,28.148808359375,46.1665793671875,28.148808359375,46.2963223671875L28.148808359375,51.7280513671875ZM28.741398359374998,74.3948013671875L28.741398359374998,79.82650136718749C28.741398359374998,79.9563013671875,28.608748359375,80.0614013671875,28.445108359375,80.0614013671875C28.281468359375,80.0614013671875,28.148808359375,79.9563013671875,28.148808359375,79.82650136718749L28.148808359375,74.3948013671875L28.741398359374998,74.3948013671875Z" fill-rule="evenodd" fill="#F92855" fill-opacity="1"/></g><g style="mix-blend-mode:passthrough"><path d="M51.148808359374996,44.7280513671875L45.963588359375,44.7280513671875C44.572648359375,44.7280513671875,43.445068359375,45.6220613671875,43.445068359375,46.7248813671875L43.445068359375,65.3979013671875C43.445068359375,66.5007013671875,44.572648359375,67.39470136718751,45.963588359375,67.39470136718751L56.926568359375,67.39470136718751C58.317468359375,67.39470136718751,59.445068359375,66.5007013671875,59.445068359375,65.3979013671875L59.445068359375,46.7248813671875C59.445068359375,45.6220613671875,58.317468359375,44.7280513671875,56.926568359375,44.7280513671875L51.741398359375,44.7280513671875L51.741398359375,39.2963223671875C51.741398359375,39.1665793671875,51.608748359375,39.0614013671875,51.445108359375,39.0614013671875C51.281468359375,39.0614013671875,51.148808359374996,39.1665793671875,51.148808359374996,39.2963223671875L51.148808359374996,44.7280513671875ZM51.741398359375,67.3948013671875L51.741398359375,72.82650136718749C51.741398359375,72.9563013671875,51.608748359375,73.0614013671875,51.445108359375,73.0614013671875C51.281468359375,73.0614013671875,51.148808359374996,72.9563013671875,51.148808359374996,72.82650136718749L51.148808359374996,67.3948013671875L51.741398359375,67.3948013671875Z" fill-rule="evenodd" fill="#2DC08E" fill-opacity="1"/></g></g><g><path d="M17.7274,90.6541C17.5901,90.6541,17.4517,90.6436,17.3121,90.6225C9.93219,89.5095,4.80718,86.7136,2.07787,82.3084C-1.1223,77.1437,0.241766,71.6314,0.56829,70.5137C5.37624,46.647,15.0785,38.4945,21.5025,33.0957C22.9683,31.8633,24.2342,30.7995,25.1676,29.7672C25.4105,29.4984,25.6051,29.2154,25.7556,28.9202C24.7465,29.2231,24.1971,29.4326,24.1703,29.4429C22.908,29.9368,21.4777,29.3247,20.9761,28.076C20.4756,26.8272,21.0897,25.4146,22.352,24.9172C22.5042,24.8571,23.5312,24.4607,25.3073,23.9616C24.087,21.4425,21.7693,18.7949,19.7125,16.6431L19.2819,16.1902C16.2438,12.9776,14.6017,4.80159,14.3036,3.19471C14.1306,2.26212,14.4636,1.30796,15.1814,0.679657C15.8995,0.0512175,16.8976,-0.159672,17.8125,0.123747C22.7731,1.66274,24.2638,1.81255,27.2321,2.11098C28.7357,2.26195,29.83,3.59029,29.6762,5.07662C29.5236,6.56295,28.182,7.64786,26.6784,7.49454C24.4992,7.27569,22.9517,7.09896,20.724,6.56646C21.4493,9.09088,22.3803,11.5427,23.2771,12.4919L23.6876,12.9237C25.3757,14.69,28.9691,18.45,30.7016,22.7299C35.0392,21.9433,40.8791,21.3359,47.7817,21.7249C48.2004,20.7386,48.8054,19.7953,49.5907,18.9135C49.7137,18.7754,49.8498,18.6502,49.9988,18.539C53.6142,15.8508,57.5491,12.857,59.7803,11.0758C58.1028,11.2502,56.1034,11.0278,53.9124,9.70882C53.2439,9.30622,52.5992,8.89427,51.9662,8.48933C48.4668,6.25164,46.497,5.12109,43.4234,5.94853C41.9647,6.34058,40.4622,5.48975,40.0659,4.04789C39.6695,2.60604,40.5296,1.11853,41.9871,0.726471C47.5602,-0.773825,51.4796,1.73271,54.9364,3.9434L54.9364,3.9434C55.5284,4.32176,56.1318,4.70797,56.7564,5.08482C58.3843,6.06556,59.4858,5.76127,61.2899,5.13865C62.3511,4.77234,63.5567,4.35687,64.8675,4.53476C66.3321,4.73254,67.4406,5.56933,67.9103,6.83096C68.7444,9.07333,67.1035,11.5533,65.5797,13.2374C64.6729,14.2394,60.0845,17.7606,56.4519,20.4957C56.9477,20.3369,57.4767,20.2511,58.026,20.2511C59.4281,20.2511,60.6982,20.8102,61.621,21.7153C65.4948,20.6901,67.87,17.9563,67.9033,17.9175C68.78,16.8888,70.3322,16.7577,71.3721,17.6226C72.412,18.4886,72.5457,20.0253,71.6702,21.054C71.5221,21.2286,69.5063,23.5492,66.0787,25.233C69.5399,26.8822,72.9993,29.682,74.1841,34.4145C74.5106,35.7206,73.7062,37.0407,72.3859,37.3638C72.1871,37.4117,71.9884,37.4351,71.792,37.4351C70.687,37.4351,69.6826,36.6932,69.4046,35.5848C68.4378,31.7217,64.8144,29.7431,61.7619,28.7456C60.8298,29.7349,59.5009,30.3535,58.026,30.3535C55.8642,30.3535,54.0162,29.0245,53.2713,27.1474C53.2022,27.138,53.1331,27.1287,53.0642,27.1195C54.232,29.5936,57.0851,31.9259,58.1868,32.665C58.3157,32.7516,58.4423,32.8523,58.5547,32.9599C66.5865,40.6151,72.4887,48.8133,76.0971,57.3287C76.6815,58.7074,76.0249,60.2932,74.6313,60.8702C74.2976,61.01,73.9388,61.082,73.576,61.082C72.5065,61.082,71.4914,60.4582,71.0525,59.4213C67.7577,51.6455,62.331,44.1074,54.9203,37.0116C53.6073,36.1009,48.0984,31.9917,47.2065,26.583C40.9421,26.2679,35.6187,26.8278,31.6725,27.5336C31.6197,29.527,30.9225,31.5172,29.2456,33.3731C28.0614,34.6827,26.5968,35.915,25.0446,37.2188C21.9414,39.8269,18.2648,42.9169,14.8104,48.1192C11.356,53.3215,8.12389,60.6361,5.9098,71.6934C5.88732,71.8035,5.85893,71.9123,5.82344,72.0188C5.81634,72.041,4.57886,76.0413,6.77344,79.5289C8.6332,82.4828,12.4557,84.4139,18.1367,85.2705C19.6297,85.4953,20.6566,86.8762,20.4295,88.3532C20.2213,89.6944,19.0559,90.6541,17.7274,90.6541ZM35.1195,7.03101C33.3502,7.03101,31.9158,5.61208,31.9158,3.86173C31.9158,2.11139,33.3502,0.69245,35.1195,0.69245C36.8889,0.69245,38.3233,2.11139,38.3233,3.86173C38.3233,5.61208,36.8889,7.03101,35.1195,7.03101ZM57.6848,23.1892L58.414,24.4754C58.8984,24.3623,59.3923,24.3435,59.8644,24.4203C60.2191,24.5005,60.5087,24.7182,60.6663,25.0229C60.8636,25.3394,60.8993,25.7346,60.7646,26.1094C60.5988,26.5176,60.2972,26.8749,59.9085,27.1235L60.31,27.8316L59.7886,28.1294L59.3994,27.443C58.9257,27.7175,58.399,27.883,57.8664,27.9247L57.3744,27.0569C57.6378,27.0741,57.9071,27.048,58.1704,26.9797C58.4501,26.9251,58.7239,26.8323,58.9829,26.7044L58.2801,25.4647C57.8047,25.5877,57.3167,25.6065,56.8549,25.5197C56.4913,25.4263,56.196,25.1971,56.0328,24.8814C55.8433,24.5561,55.8127,24.1572,55.9484,23.7789C56.088,23.373,56.3763,23.0149,56.7584,22.7726L56.4166,22.1699L56.938,21.8721L57.2727,22.4625C57.6615,22.2376,58.0888,22.0901,58.5254,22.0301L59.0042,22.8746C58.5548,22.8828,58.103,22.9906,57.6848,23.1892ZM56.9319,24.2961Q57.1278,24.6417,57.7863,24.5856L57.1695,23.4978Q56.6982,23.884,56.9319,24.2961ZM58.9077,25.3462L59.4981,26.3875L59.499,26.3891Q59.9965,26.0045,59.7628,25.5923Q59.573,25.2576,58.9077,25.3462ZM73.2212,66.5065C73.2212,68.2569,74.6555,69.6758,76.4249,69.6758C78.1943,69.6758,79.6286,68.2569,79.6286,66.5065C79.6286,64.7562,78.1943,63.3372,76.4249,63.3372C74.6555,63.3372,73.2212,64.7562,73.2212,66.5065ZM35.9465,91.8045C35.0734,91.8045,34.2038,91.7987,33.3378,91.7858C31.827,91.7636,30.6203,90.5359,30.6428,89.0402C30.6653,87.5457,31.9158,86.3297,33.4183,86.3742C49.6344,86.6059,65.7512,84.6175,67.6134,84.037C72.1953,82.4184,74.5295,79.3603,74.5295,74.9575C74.5295,73.463,75.754,72.2517,77.2648,72.2517C78.7755,72.2517,80,73.463,80,74.9575C80,81.5992,76.148,86.7686,69.4317,89.142C67.0041,89.9999,51.0955,91.8046,35.9465,91.8045ZM25.2731,92C23.5037,92,22.0693,90.5811,22.0693,88.8307C22.0693,87.0804,23.5037,85.6615,25.2731,85.6615C27.0424,85.6615,28.4768,87.0804,28.4768,88.8307C28.4768,90.5811,27.0424,92,25.2731,92Z" fill-rule="evenodd" fill="url(#master_svg0_696_603)" fill-opacity="1"/></g></g></svg>