<svg xmlns="http://www.w3.org/2000/svg" xmlns:xlink="http://www.w3.org/1999/xlink" fill="none" version="1.1" width="160.00001525878906" height="160.00003051757812" viewBox="0 0 160.00001525878906 160.00003051757812"><defs><linearGradient x1="0" y1="0.5" x2="1" y2="0.5" id="master_svg0_768_1759"><stop offset="0%" stop-color="#F92855" stop-opacity="1"/><stop offset="100%" stop-color="#2DC08E" stop-opacity="1"/></linearGradient></defs><g><g><path d="M94.6224,6.05679L153.943,65.3776Q156.916,68.3506,158.486,72.2205Q160,75.9553,160,80Q160,84.0447,158.486,87.7795Q156.916,91.6494,153.943,94.6224L125.275,123.29Q124.585,124.097,123.824,124.858Q123.063,125.619,122.256,126.309L94.6224,153.943Q91.6494,156.916,87.7795,158.486Q84.0447,160,80,160Q75.9553,160,72.2205,158.486Q68.3506,156.916,65.3776,153.943L37.7437,126.309Q36.9367,125.619,36.1759,124.858Q35.4152,124.097,34.7247,123.29L6.05679,94.6224Q3.08382,91.6494,1.5145,87.7795Q0,84.0447,0,80Q0,75.9553,1.5145,72.2205Q3.08381,68.3506,6.05679,65.3776L65.3776,6.05679Q68.3506,3.08382,72.2205,1.5145Q75.9553,0,80,0Q84.0448,0,87.7795,1.5145Q91.6494,3.08382,94.6224,6.05679ZM88.7734,11.9057L106.24,29.3724Q105.532,29.3361,104.815,29.3361L55.185,29.3361Q54.4684,29.3361,53.7599,29.3724L71.2266,11.9057Q73.0135,10.1188,75.3289,9.17988Q77.5686,8.27166,80,8.27166Q82.4314,8.27166,84.6711,9.17988Q86.9865,10.1188,88.7734,11.9057ZM40.8275,117.695L43.3388,120.206Q45.4239,121.934,47.9419,122.999Q51.3958,124.46,55.185,124.46L104.815,124.46Q108.604,124.46,112.058,122.999Q114.576,121.934,116.661,120.206L119.173,117.695Q120.9,115.61,121.965,113.092Q123.426,109.638,123.426,105.849L123.426,56.219Q123.426,52.4298,121.965,48.9759Q120.553,45.6367,117.975,43.0588Q115.397,40.4809,112.058,39.0686Q108.604,37.6077,104.815,37.6077L55.185,37.6077Q51.3958,37.6077,47.9419,39.0686Q44.6027,40.4809,42.0249,43.0588Q39.447,45.6367,38.0346,48.9759Q36.5738,52.4298,36.5738,56.219L36.5738,105.849Q36.5738,109.638,38.0346,113.092Q39.0997,115.61,40.8275,117.695ZM148.094,88.7734L131.698,105.17L131.698,56.219Q131.698,55.5023,131.662,54.7939L148.094,71.2266Q149.881,73.0134,150.82,75.3289Q151.728,77.5686,151.728,80Q151.728,82.4314,150.82,84.6711Q149.881,86.9865,148.094,88.7734ZM11.9057,71.2266L28.3384,54.7939Q28.3021,55.5024,28.3021,56.219L28.3021,105.17L11.9057,88.7734Q10.1188,86.9865,9.17988,84.671Q8.27166,82.4314,8.27166,80Q8.27166,77.5686,9.17988,75.3289Q10.1188,73.0135,11.9057,71.2266ZM71.2266,148.094L55.8642,132.732L104.136,132.732L88.7734,148.094Q86.9865,149.881,84.671,150.82Q82.4314,151.728,80,151.728Q77.5686,151.728,75.3289,150.82Q73.0134,149.881,71.2266,148.094Z" fill-rule="evenodd" fill="url(#master_svg0_768_1759)" fill-opacity="1"/></g><g><g><path d="M63.004189111328124,61.425222396850586C62.132189111328124,61.425222396850586,61.42518911132812,62.05135039685059,61.42518911132812,62.823722396850584L61.42518911132812,71.21469239685058L53.53047911132813,71.21469239685058C51.786429111328125,71.21469239685058,50.372589111328125,72.46692239685059,50.372589111328125,74.01172239685059L50.372589111328125,97.78612239685059C50.372589111328125,99.33082239685058,51.786429111328125,100.58312239685058,53.53047911132813,100.58312239685058L61.42518911132812,100.58312239685058L61.42518911132812,108.97412239685059C61.42518911132812,109.74642239685059,62.132189111328124,110.37262239685059,63.004189111328124,110.37262239685059C63.876189111328124,110.37262239685059,64.58308911132812,109.74642239685059,64.58308911132812,108.97412239685059L64.58308911132812,100.58312239685058L72.47788911132812,100.58312239685058C74.22188911132812,100.58312239685058,75.63578911132812,99.33082239685058,75.63578911132812,97.78612239685059L75.63578911132812,74.01172239685059C75.63578911132812,72.46692239685059,74.22188911132812,71.21469239685058,72.47788911132812,71.21469239685058L64.58308911132812,71.21469239685058L64.58308911132812,62.823722396850584C64.58308911132812,62.05135039685059,63.876189111328124,61.425222396850586,63.004189111328124,61.425222396850586Z" fill-rule="evenodd" fill="#F92855" fill-opacity="1"/></g><g><path d="M97.74103222045899,50.372589111328125C96.86903222045899,50.372589111328125,96.16203222045898,50.998717111328126,96.16203222045898,51.77108911132812L96.16203222045898,60.16205911132813L88.26732222045898,60.16205911132813C86.52327222045898,60.16205911132813,85.10943222045898,61.414289111328124,85.10943222045898,62.959089111328126L85.10943222045898,86.73348911132813C85.10943222045898,88.27818911132812,86.52327222045898,89.53048911132812,88.26732222045898,89.53048911132812L96.16203222045898,89.53048911132812L96.16203222045898,97.92148911132813C96.16203222045898,98.69378911132813,96.86903222045899,99.31998911132813,97.74103222045899,99.31998911132813C98.61303222045899,99.31998911132813,99.31993222045898,98.69378911132813,99.31993222045898,97.92148911132813L99.31993222045898,89.53048911132812L107.21473222045898,89.53048911132812C108.95873222045898,89.53048911132812,110.37263222045898,88.27818911132812,110.37263222045898,86.73348911132813L110.37263222045898,62.959089111328126C110.37263222045898,61.414289111328124,108.95873222045898,60.16205911132813,107.21473222045898,60.16205911132813L99.31993222045898,60.16205911132813L99.31993222045898,51.77108911132812C99.31993222045898,50.998717111328126,98.61303222045899,50.372589111328125,97.74103222045899,50.372589111328125Z" fill-rule="evenodd" fill="#2DC08E" fill-opacity="1"/></g></g></g></svg>