<svg xmlns="http://www.w3.org/2000/svg" xmlns:xlink="http://www.w3.org/1999/xlink" version="1.1" id="图层_1" x="0px" y="0px" viewBox="0 0 186.8 33.8" style="enable-background:new 0 0 186.8 33.8;" xml:space="preserve">
<style type="text/css">
	.st0{fill:#FEB027;}
	.st1{fill:#118D68;}
	.st2{fill:#717071;}
</style>
<g>
	<g>
		<path class="st0" d="M15,0.5l-0.2,0.1L2.7,7.7c-0.1,0-0.1,0.2,0,0.2l3.9,2.3h0.1l2.8-1.7h0.1l6.8,3.7c0.7,0.4,1.5,0.4,2.2,0    l2.2-1.2c0.1,0,0.1-0.2,0-0.2l-7.6-4.2c-0.1,0-0.1-0.2,0-0.2l2.9-1.7h0.1l9.5,5.5h0.1L29.7,8c0.1,0,0.1-0.2,0-0.2L17.2,0.6    c-0.6-0.4-1.4-0.5-2-0.2C15.2,0.4,15.1,0.4,15,0.5z"/>
		<path class="st1" d="M17.6,23.4l6.7-4c0.1-0.1,0.2,0.1,0.1,0.1l-6.9,8.7c0,0,0,0,0,0.1v5.1c0,0.2,0.2,0.3,0.3,0.2l12.4-7.1l0,0    c0.4-0.3,0.9-0.9,0.9-1.3s0-3.8,0-4.5c0-0.1-0.1-0.1-0.1-0.1l-5.7,3.2c-0.1,0-0.2-0.1-0.1-0.1l6-8.3c0,0,0,0,0-0.1v-4.8    c0-0.2-0.2-0.3-0.3-0.2l-12.1,7c-0.8,0.4-1.2,1.2-1.2,2.1L17.6,23.4C17.5,23.4,17.6,23.4,17.6,23.4z"/>
		<g>
			<path class="st2" d="M6.5,29l2.3,1.3c0.1,0.1,0.2,0,0.2-0.1v-6.9c0-0.1,0-0.1-0.1-0.1l-2.2-1.3c-0.1-0.1-0.2,0-0.2,0.1V29     C6.4,29,6.5,29,6.5,29z"/>
			<path class="st2" d="M1.1,10.6v14.3l0,0c0.1,0.5,0.3,1,0.7,1.3l0,0C2,26.3,3.4,27.1,4,27.5c0.1,0.1,0.3,0,0.3-0.2v-9.6     c0-0.2,0.2-0.3,0.3-0.2l6.1,3.4c0.4,0.2,0.6,0.6,0.6,1v9.8c0,0.1,0,0.2,0.1,0.2l3,1.7c0.1,0.1,0.3,0,0.3-0.2V19.5     c0-0.9-0.5-1.8-1.3-2.2l-12-6.9C1.3,10.3,1.1,10.4,1.1,10.6z"/>
		</g>
	</g>
	<g>
		<path id="XMLID_9_" class="st2" d="M51.8,12.6v-2.5h-8.4c-3.3,0-6.1,2.8-6.1,6.1l0,0v8.5h3.9v-6.1h10.6v-2.4H41.1l0,0    c0-2,1.5-3.6,3.6-3.6C44.7,12.6,51.8,12.6,51.8,12.6z"/>
		<path id="XMLID_8_" class="st2" d="M72.3,24.8H69V13.6l-4.4,11.1h-3.9l-4.5-11.4v11.4H53V10.2h5.2l4.5,11.5L67,10.2h5.2L72.3,24.8    L72.3,24.8z"/>
		<path id="XMLID_7_" class="st2" d="M89.4,24.8H73.7v-2.5L84.1,13H73.5v-2.8h15.7V13l-10.2,9.2h10.2L89.4,24.8L89.4,24.8z"/>
		<path id="XMLID_6_" class="st1" d="M168.7,24.8h-4.8L156.3,14v10.7h-3.6V10.2h4.8l7.3,10.9V10.2h3.9V24.8L168.7,24.8z"/>
		<path id="XMLID_5_" class="st1" d="M186,12.6h-5.7v12.1h-3.6V12.6h-5.7v-2.5h14.8v2.5C185.8,12.6,186,12.6,186,12.6z"/>
		<polygon id="XMLID_3_" class="st1" points="144,10.2 140.1,10.2 133.7,24.8 137.6,24.8 142.2,14.4 146.6,24.8 146.6,24.8     150.5,24.8   "/>
		<path id="XMLID_2_" class="st1" d="M127.8,10.2v8.7c0,2-1.9,3.4-3.9,3.4l0,0c-2,0-3.9-1.4-3.9-3.4v-8.7h-3.9v8.4    c0,4,3.3,6.1,7.3,6.2c4.4,0.2,7.9-1.9,7.9-6.1v-8.5C131.5,10.2,127.8,10.2,127.8,10.2z"/>
		<path id="XMLID_1_" class="st1" d="M114.2,17.5c0-4-3.6-7.5-8.4-7.5s-8.4,3.4-8.4,7.5s3.6,7.5,8.4,7.5c1.4,0,2.8-0.4,4-1.1    l0.4,1.1h3.9l-1.9-2.8C113.5,20.9,114.2,19.2,114.2,17.5z M101.4,17.5c0-2.6,2-4.8,4.5-4.8c2.5,0,4.5,2,4.5,4.8s-2,4.8-4.5,4.8    C103.5,22.3,101.4,20,101.4,17.5z"/>
	</g>
</g>
</svg>