<svg xmlns="http://www.w3.org/2000/svg" xmlns:xlink="http://www.w3.org/1999/xlink" fill="none" version="1.1" width="68" height="74" viewBox="0 0 68 74"><g style="mix-blend-mode:passthrough"><g><g style="mix-blend-mode:passthrough"><g><g style="mix-blend-mode:passthrough"><rect x="0" y="24" width="27" height="40" rx="2" fill="#EF5350" fill-opacity="1"/></g><g style="mix-blend-mode:passthrough"><path d="M13 14.5C13 14.223857625084603 13.223857625084603 14 13.5 14L13.5 14C13.776142374915397 14 14 14.223857625084603 14 14.5L14 24C14 24 14 24 14 24L13 24C13 24 13 24 13 24Z" fill="#EF5350" fill-opacity="1"/></g><g style="mix-blend-mode:passthrough"><path d="M13 64C13 64 13 64 13 64L14 64C14 64 14 64 14 64L14 73.5C14 73.7761423749154 13.776142374915397 74 13.5 74L13.5 74C13.223857625084603 74 13 73.7761423749154 13 73.5Z" fill="#EF5350" fill-opacity="1"/></g></g></g><g style="mix-blend-mode:passthrough"><g><g style="mix-blend-mode:passthrough"><rect x="41" y="10" width="27" height="40" rx="2" fill="#26A69A" fill-opacity="1"/></g><g style="mix-blend-mode:passthrough"><path d="M54 0.5C54 0.22385762508460327 54.223857625084605 0 54.5 0L54.5 0C54.776142374915395 0 55 0.22385762508460333 55 0.5L55 10C55 10 55 10 55 10L54 10C54 10 54 10 54 10Z" fill="#26A69A" fill-opacity="1"/></g><g style="mix-blend-mode:passthrough"><path d="M54 50C54 50 54 50 54 50L55 50C55 50 55 50 55 50L55 59.5C55 59.776142374915395 54.776142374915395 60 54.5 60L54.5 60C54.223857625084605 60 54 59.776142374915395 54 59.5Z" fill="#26A69A" fill-opacity="1"/></g></g></g></g></g></svg>