<svg xmlns="http://www.w3.org/2000/svg" xmlns:xlink="http://www.w3.org/1999/xlink" fill="none" version="1.1" width="120" height="120" viewBox="0 0 120 120"><defs><clipPath id="master_svg0_81_1175"><rect x="0" y="0" width="120" height="120" rx="0"/></clipPath></defs><g clip-path="url(#master_svg0_81_1175)"><g><path d="M18.9103,58.15C19.2471,58.1456,19.5911,58.1411,19.9454,58.1411C19.9454,58.2467,19.9498,58.3452,19.9539,58.4386C19.962,58.6203,19.9692,58.7822,19.9416,58.9381C19.5442,61.0838,19.1506,63.2294,18.7227,65.3692C17.9115,69.4316,16.7939,73.4577,16.661,77.6082C16.3965,85.8715,19.9301,92.3225,27.6494,96.602C29.4441,97.5973,31.4032,98.4132,33.3916,99.0176C48.7592,103.6916,64.3267,104.2304,80.0523,100.7443C83.9492,99.8792,87.8133,98.912,91.3659,97.1138C96.6235,94.4529,100.427,90.6475,102.175,85.2399C103.315,81.7081,103.421,78.09870000000001,102.797,74.4976C101.983,69.806,100.999,65.14150000000001,100.088,60.4651C99.9242,59.6271,99.7547,58.7902,99.5762,57.8888C99.7409,57.8888,99.8916,57.8881,100.033,57.8875C100.318,57.8863,100.565,57.8852,100.811,57.89C101.433,57.9019,102.054,57.9226,102.676,57.9433C104.003,57.9875,105.33,58.0316,106.654,57.9909C110.16,57.8829,113.445,57.0119,116.061,54.7537C119.253,51.9988,120.931,48.5573,119.464,44.5817C117.977,40.551,114.722,38.052,110.054,37.4781C107.683,37.1858,105.472,37.9452,103.32,38.806799999999996C102.538,39.1202,101.758,39.4618,100.943,39.68C98.4308,40.3538,96.002,40.1002,93.534,39.001599999999996C93.8453,38.765699999999995,94.0643,38.6002,94.2845,38.4347C96.5829,36.7057,98.6105,34.7479,100.098,32.3557C102.769,28.0586,103.159,23.62173,100.984,19.04403C100.875,18.81398,100.738,18.59565,100.5,18.16488C100.148,22.288330000000002,97.9436,25.21454,94.9212,27.706400000000002C92.219,29.9343,89.0991,31.538800000000002,85.8199,32.9039C85.3541,33.0976,85.1579,32.9144,84.9149,32.607C83.5316,30.858,82.5735,28.9271,82.2824,26.77682C82.1217,25.5913,81.5155,24.76144,80.5725,24.04428C79.579,23.28838,78.4728,22.73083,77.1895,22.63928C75.8592,22.5442,74.9758,22.12047,74.9631,20.7413C74.9618,20.57462,74.8619,20.40913,74.8024,20.244790000000002C73.8569,17.630808000000002,72.1369,16.604935,69.2247,17.135482C67.5603,17.439484,65.9087,17.903124,64.3305,18.48179C62.4977,19.15318,60.7474,20.01943,58.9754,20.82581C58.5653,21.012430000000002,58.2793,20.97605,57.8857,20.75773C56.8138,20.16263,55.7379,19.54405,54.5875,19.10858C53.1623,18.56864,52.3106,18.85387,51.3588,19.95839C50.507,20.94787,49.4312,21.59815,48.0884,21.81529C47.2492,21.95027,46.3961,22.04535,45.5457,22.075870000000002C41.6259,22.2179,37.9872,23.28367,34.5523,24.97272C33.7423,25.37181,32.9829,25.92465,32.3361,26.53267C31.3211,27.4869,31.1743,28.659599999999998,32.0792,29.6983C32.9208,30.6655,34.0168,31.442500000000003,35.0155,32.2877C35.2585,32.4931,35.5584,32.6409,35.914,32.8675C35.423,33.1914,35.0522,33.476600000000005,34.6383,33.6892C34.4357,33.7936,34.1144,33.8476,33.9081,33.7748C31.5166,32.9339,29.2005,31.9754,27.031,30.7947C24.8615,29.614,22.8386,28.211199999999998,21.0338,26.481009999999998C19.3037,24.82247,17.9444,22.93622,17.2888,20.68024C17.0571,19.88325,16.9445,19.056919999999998,16.7774,18.24115C16.7256,18.26111,16.656,18.26815,16.637,18.29984C16.5332,18.47238,16.4357,18.64962,16.3472,18.82921C14.0146,23.57358,14.417,28.1642,17.2799,32.5999C18.9227,35.1434,21.1592,37.187,23.6791,38.979299999999995C23.898,39.135400000000004,24.1119,39.297399999999996,24.4271,39.5287C24.1183,39.5991,23.9689,39.640100000000004,23.8171,39.6659C23.5816,39.705799999999996,23.3436,39.7411,23.1057,39.768100000000004C20.5428,40.058,18.0899,39.594300000000004,15.7599,38.662400000000005C13.4071,37.721000000000004,11.0049,37.610600000000005,8.54063,38.0039C0.62653,39.2693,-2.67807,47.6182,2.48071,53.3263C4.50069,55.5611,7.06363,57.1081,10.1328,57.654C12.3122,58.0413,14.5815,58.0144,16.8129,58.1317C17.4991,58.1685,18.1881,58.1595,18.9103,58.15ZM41.3057,36.0449C41.0741,35.9322,40.8209,35.8559,40.3919,35.6927C42.5448,34.737300000000005,44.5344,33.8534,46.5746,32.948499999999996C46.0936,31.6127,45.1912,30.6878,43.8548,30.2488C42.5283,29.814500000000002,41.1349,29.5574,39.7692,29.2288C39.1567,29.0808,38.5403,28.9506,37.7594,28.7746C39.9148,27.206400000000002,42.1347,26.33544,44.7305,26.36596C47.2809,26.39648,49.5717,27.2545,51.9004,28.3086C52.5308,26.87302,53.1396,25.483269999999997,53.8319,23.9069C55.2013,26.42581,56.496,28.8074,57.8807,31.3545C58.8957,28.6854,60.1449,26.32839,62.394,24.56657C64.6317,22.81531,67.2806,22.01949,70.27,21.626269999999998C69.2715,23.83061,68.3248,25.917569999999998,67.3123,28.1536C67.7996,28.0785,68.1527,28.0304,68.5032,27.9705C70.7612,27.5843,73.0153,27.1841,75.277,26.82372C75.52,26.784979999999997,75.8732,26.89884,76.0528,27.0597C76.3933,27.364800000000002,76.1199,27.6231,75.8529,27.8602C74.953,28.6618,74.0619,29.4741,73.1672,30.2828C73.1925,30.345,73.2166,30.4073,73.2419,30.4694C73.7519,30.4236,74.262,30.3639,74.7733,30.338C74.9689,30.328200000000002,75.165,30.3161,75.3612,30.3039C75.9914,30.2649,76.6232,30.2258,77.2476,30.2652C78.5424,30.3474,79.379,31.042299999999997,79.8852,32.2312C78.5031,32.729,77.1717,33.2091,75.6377,33.7618C77.2691,34.354600000000005,78.7184,34.8793,80.3244,35.4615C79.9599,35.6071,79.7587,35.6951,79.5524,35.7679C77.2438,36.577799999999996,75.0492,37.5801,73.1254,39.0426C70.8497,40.772800000000004,69.3044,42.9548,68.4615,45.5653C68.202,46.3705,67.9337,47.178,67.7413,47.9985C67.4325,49.3108,67.9021,50.2826,69.2525,50.7604C70.4132,51.17,71.6559,51.4001,72.8773,51.643C78.8284,52.8274,84.3985,54.8111,89.1219,58.4709C94.5136,62.6483,98.0941,67.8834,99.2154,74.3732C100.241,80.303,98.1713,85.3161,93.4328,89.3668C89.7471,92.5172,85.301,94.3589,80.5004,95.4564C71.0585,97.615,61.4789,98.1983,51.803,97.3262C46.5886,96.8567,41.4057,96.1418,36.4305,94.5713C34.2737,93.8905,32.1374,93.0197,30.1858,91.9351C22.5008,87.6613,19.286,80.45089999999999,21.4591,72.3825C23.4816,64.8726,28.4391,59.4182,35.5989,55.6104C39.6224,53.4706,43.9915,52.2006,48.5161,51.3461C49.3249,51.1936,50.1349,51.0175,50.9158,50.7722C52.3371,50.3262,52.7801,49.6512,52.5447,48.2755C51.8435,44.1767,49.8615,40.7564,46.0963,38.4112C44.6015,37.4804,42.9106,36.8207,41.3057,36.0449ZM81.3686,42.180099999999996C84.0593,42.1391,86.3059,44.2906,86.3287,46.9327C86.3515,49.5667,84.1479,51.7382,81.4394,51.7487C78.7677,51.7604,76.5629,49.65,76.5173,47.036C76.4718,44.4092,78.6563,42.2224,81.3686,42.180099999999996ZM38.9263,51.7487C36.2254,51.791,33.994,49.6512,33.9764,47.0009C33.9587,44.3505,36.1381,42.193,38.8516,42.1813C41.55,42.1684,43.775,44.3316,43.775,46.968C43.7737,49.5738,41.6108,51.7065,38.9263,51.7487ZM21.9002,49.4815C21.8983,49.5149,21.8957,49.5588,21.8957,49.6184C21.5731,49.4622,21.3022,49.3307,21.03,49.2016C18.9645,48.2227,16.9243,47.1957,14.8271,46.2813C13.4109,45.6639,11.8858,45.3916,10.3049,45.6956C9.12283,45.9233,8.21663,46.4585,7.94451,47.6323C7.66101,48.8577,7.97109,49.9411,9.14182,50.6231C9.96702,51.1032,10.8922,51.4542,11.8111,51.7699C12.8818,52.1372,13.9931,52.4025,15.1169,52.8932C14.4715,53.0528,13.8336,53.2465,13.1793,53.365C9.91387,53.9543,7.12185,52.9178,5.43853,50.514C4.25263,48.8214,4.31591,47.1558,5.64104,45.5582C7.11551,43.781099999999995,9.11017,43.0006,11.4694,43.227199999999996C15.7966,43.6415,19.2746,45.4386,21.6199,48.930499999999995C21.7186,49.0772,21.8085,49.2298,21.8932,49.3836C21.9048,49.4036,21.9032,49.43,21.9002,49.4815ZM104.312,52.9366C104.311,52.8509,104.308,52.7664,104.307,52.6807C105.212,52.487,106.149,52.3732,107.013,52.0797C108.252,51.6583,109.513,51.2147,110.63,50.5773C111.736,49.947,112.321,48.9082,111.959,47.637100000000004C111.599,46.373999999999995,110.567,45.823499999999996,109.256,45.6416C107.784,45.4374,106.374,45.7285,105.035,46.2461C103.709,46.759,102.424,47.370599999999996,101.133,47.961C100.37,48.3096,99.6268,48.6993,98.8408,49.0878C98.8307,49.0502,98.8181,49.0165,98.8069,48.9865C98.786,48.9303,98.7699,48.8872,98.7839,48.8565C100.386,45.439800000000005,105.565,42.7518,109.533,43.322199999999995C111.553,43.6122,113.136,44.6299,114.384,46.1053C114.972,46.799,115.071,47.6018,114.843,48.4317C114.382,50.116,113.397,51.5187,111.988,52.6385C110.843,53.5493,109.42,53.73,107.983,53.5728C106.75,53.4389,105.535,53.1549,104.312,52.9366ZM77.9147,47.4022C77.9084,49.2614,79.4575,50.7709,81.3889,50.7862C83.3253,50.8014,84.9061,49.3225,84.9365,47.4667C84.9669,45.615700000000004,83.4215,44.0792,81.499,44.0464C79.5259,44.0135,77.9223,45.5159,77.9147,47.4022ZM38.8859,50.7862C40.8248,50.7768,42.3677,49.285,42.3689,47.417500000000004C42.3689,45.55,40.8286,44.055800000000005,38.8884,44.0476C36.952,44.037,35.3825,45.5172,35.3572,47.3776C35.3319,49.2591,36.9216,50.7956,38.8859,50.7862ZM37.7607,47.4269C37.2253,47.4644,36.7621,46.9914,36.776,46.400999999999996C36.8494,45.9456,37.1165,45.5841,37.7253,45.5547C38.2771,45.5289,38.734,45.9726,38.7036,46.5078C38.672,47.0513,38.353,47.3858,37.7607,47.4269ZM80.2827,45.555800000000005C80.832,45.5253,81.2813,45.9737,81.2686,46.568799999999996C81.2079,47.0383,80.9193,47.3869,80.3219,47.4268C79.779,47.462,79.3145,47.0043,79.3436,46.4702C79.3739,45.9291,79.6802,45.5899,80.2827,45.555800000000005ZM83.9264,60.2081C84.432,61.5008,84.8533,62.5811,85.3389,63.8245C85.7474,62.8223,86.0888,61.9832,86.463,61.0659C85.5974,60.7737,84.8433,60.5189,83.9264,60.2081ZM57.3923,62.8941C57.6858,62.7324,58.0001,62.5592,58.0482,63.274L58.024,63.2453L58.0236,63.2859C57.7721,63.3606,57.5111,63.4058,57.2741,63.5222C55.0132,64.6382,52.7651,65.7933,50.4929,66.87700000000001C49.9001,67.16069999999999,49.6816,67.5107,49.6858,68.2887C49.7085,72.50880000000001,49.7059,76.7299,49.7032,80.9505C49.7024,82.3123,49.7015,83.6741,49.7015,85.0358C49.7015,85.1101,49.7045,85.1856,49.7075,85.2613C49.715,85.4538,49.7226,85.6472,49.6816,85.8239C49.6387,86.004,49.4731,86.2741,49.3559,86.2792C48.7127,86.3086,48.0686,86.3054,47.3809,86.3019C47.1524,86.3008,46.9191,86.2996,46.6794,86.2996L46.6794,68.8475C46.3295,69.0004,46.101,69.0887,45.8796,69.1991C43.2316,70.5122,40.5922,71.84729999999999,37.9343,73.13159999999999C37.4115,73.38470000000001,37.253,73.7176,37.2573,74.3715C37.276,77.2316,37.275,80.0917,37.274,82.9518C37.2735,84.2348,37.2731,85.5178,37.2744,86.8008C37.2745,86.915,37.2741,87.0197,37.2738,87.1156C37.2715,87.7079,37.2705,87.9654,37.3971,88.0736C37.4945,88.1569,37.6673,88.1519,37.973,88.1431C38.0868,88.1398,38.2191,88.1359,38.3727,88.1359C43.4052,88.1389,48.4376,88.1394,53.47,88.1398C62.6886,88.1407,71.9071,88.1415,81.1257,88.158C81.8128,88.158,81.9441,87.9015,81.9427,87.1575C81.9285,82.0749,81.9288,76.9923,81.929,71.9097C81.9291,69.8528,81.9293,67.7959,81.9284,65.739C81.9284,65.46549999999999,81.8956,65.19030000000001,81.867,64.76050000000001C81.06,65.18010000000001,80.386,65.5929,79.6761,65.8851C77.5737,66.75139999999999,75.4642,67.59559999999999,73.3419,68.3923C72.7734,68.6046,72.5762,68.9019,72.5806,69.6238C72.6048,73.93090000000001,72.6003,78.2393,72.5958,82.5468C72.595,83.3222,72.5941,84.0975,72.5935,84.8728C72.5933,85.0318,72.5947,85.1733,72.596,85.2993C72.6012,85.8274,72.6037,86.0822,72.4777,86.2037C72.3604,86.317,72.1314,86.3147,71.6892,86.3101C71.6065,86.3093,71.5163,86.3084,71.418,86.3081C71.312,86.3076,71.2055,86.3025,71.0991,86.2974C70.8568,86.2857,70.6148,86.2741,70.3797,86.3166C69.6498,86.4474,69.5213,86.0346,69.5255,85.2719C69.5427,81.7471,69.5406,78.2213,69.5384,74.696C69.5377,73.5205,69.537,72.345,69.537,71.1696L69.537,69.9092C69.13,70.05019999999999,68.85,70.1351,68.5772,70.2438C66.7005,70.9878,64.8124,71.6945,62.9556,72.5048C62.2059,72.8309,61.696,72.8275,61.4146,71.8355C61.4074,71.8083,61.3331,71.8083,61.2004,71.7692L61.2004,86.3116C60.9369,86.3116,60.6815,86.306,60.4318,86.3005C59.8775,86.2884,59.3518,86.277,58.8309,86.3286C58.1154,86.3998,57.9725,86.0584,57.9754,85.2787C57.9908,81.2979,57.9899,77.3164,57.9891,73.3346C57.9887,71.4103,57.9883,69.48599999999999,57.9897,67.5616C57.9911,66.13640000000001,58.0121,64.7111,58.0236,63.2859C58.0306,63.2838,58.0376,63.2817,58.0446,63.2796C58.1968,63.5206,58.3682,63.7495,58.4898,64.0096C59.6052,66.39959999999999,60.7307,68.78280000000001,61.8033,71.1983C62.1018,71.87100000000001,62.3702,72.0205,62.9959,71.76910000000001C70.0228,68.9425,77.0598,66.1567,84.0938,63.359C84.318,63.269,84.5381,63.1602,84.7851,63.0481C84.6623,62.6914,84.5752,62.4179,84.4738,62.1529C84.2149,61.4824,84.1436,61.1936,83.9852,61.1332C83.8761,61.0916,83.7256,61.1585,83.4438,61.2837C83.3472,61.3266,83.2352,61.3764,83.1041,61.431C78.438,63.376,73.7734,65.33109999999999,69.1087,67.2795C67.1306,68.1051,65.1525,68.9272,63.1301,69.7681C61.6033,66.55250000000001,60.1037,63.393,58.5925,60.2097C57.4029,60.7855,56.3046,61.3172,55.2077,61.8489C47.6766,65.5044,40.1454,69.1582,32.6186,72.82560000000001C32.3672,72.94800000000001,31.9987,73.1755,31.9673,73.4083C31.9044,73.87960000000001,31.915,74.3646,31.9264,74.8906C31.931,75.1058,31.9359,75.328,31.9359,75.55879999999999C32.3201,75.3805,32.55,75.28190000000001,32.7742,75.16980000000001C37.7002,72.71520000000001,42.6263,70.2624,47.5523,67.8061C50.7901,66.19069999999999,54.0265,64.5719,57.2658,62.9615C57.3069,62.9412,57.3494,62.9178,57.3923,62.8941Z" fill-rule="evenodd" fill="#1677FF" fill-opacity="1"/></g></g></svg>