<svg xmlns="http://www.w3.org/2000/svg" xmlns:xlink="http://www.w3.org/1999/xlink" fill="none" version="1.1" width="280" height="280" viewBox="0 0 280 280"><defs><linearGradient x1="0" y1="0.5" x2="1" y2="0.5" id="master_svg0_768_1759"><stop offset="0%" stop-color="#F92855" stop-opacity="1"/><stop offset="100%" stop-color="#2DC08E" stop-opacity="1"/></linearGradient></defs><g><g><g><path d="M164.631,20.2025L259.797,115.369Q264.805,120.376,267.449,126.896Q270,133.188,270,140Q270,146.812,267.449,153.104Q264.805,159.624,259.797,164.631L164.631,259.797Q159.624,264.805,153.104,267.449Q146.812,270,140,270Q133.188,270,126.896,267.449Q120.376,264.805,115.369,259.797L20.2025,164.631Q15.19525,159.624,12.55124,153.104Q10,146.812,10,140Q10,133.188,12.55124,126.896Q15.19524,120.376,20.2025,115.369L115.369,20.2025Q120.376,15.19524,126.896,12.55124Q133.188,10,140,10Q146.812,10,153.104,12.55124Q159.624,15.19525,164.631,20.2025ZM152.902,31.9316Q150.273,29.3028,146.87,27.9229Q143.577,26.5874,140,26.5874Q136.423,26.5874,133.13,27.9229Q129.727,29.3028,127.098,31.9316L98.6493,60.3803L181.351,60.3803L152.902,31.9316ZM184.786,203.032Q188.504,203.032,191.886,201.602Q195.159,200.217,197.688,197.688Q200.217,195.159,201.602,191.886Q203.032,188.504,203.032,184.786L203.032,95.2139Q203.032,91.4963,201.602,88.1142Q200.217,84.8413,197.688,82.3119Q195.159,79.7825,191.886,78.3982Q188.504,76.9678,184.786,76.9678L95.2139,76.9677Q91.4963,76.9677,88.1142,78.3982Q84.8413,79.7825,82.3119,82.3119Q79.7825,84.8413,78.3982,88.1142Q76.9678,91.4962,76.9678,95.2139L76.9677,184.786Q76.9677,188.504,78.3982,191.886Q79.7825,195.159,82.3119,197.688Q84.8413,200.217,88.1142,201.602Q91.4963,203.032,95.2139,203.032L184.786,203.032ZM31.9316,127.098L60.3803,98.6493L60.3803,181.351L31.9316,152.902Q29.3028,150.273,27.9229,146.87Q26.5874,143.577,26.5874,140Q26.5874,136.423,27.9229,133.13Q29.3028,129.727,31.9316,127.098ZM248.068,152.902L219.62,181.351L219.62,98.6493L248.068,127.098Q250.697,129.727,252.077,133.13Q253.413,136.423,253.413,140Q253.413,143.577,252.077,146.87Q250.697,150.273,248.068,152.902ZM127.098,248.068L98.6493,219.62L181.351,219.62L152.902,248.068Q150.273,250.697,146.87,252.077Q143.577,253.413,140,253.413Q136.423,253.413,133.13,252.077Q129.727,250.697,127.098,248.068Z" fill-rule="evenodd" fill="url(#master_svg0_768_1759)" fill-opacity="1"/></g><g><g><path d="M114.26335349121094,111.86856842041016C112.94075349121094,111.86856842041016,111.86865349121094,112.81819642041016,111.86865349121094,113.98961842041015L111.86865349121094,126.71596842041015L99.89492349121093,126.71596842041015C97.24977349121093,126.71596842041015,95.10545349121094,128.61516842041016,95.10545349121094,130.95806842041014L95.10545349121094,167.01596842041016C95.10545349121094,169.35876842041017,97.24977349121093,171.25806842041015,99.89492349121093,171.25806842041015L111.86865349121094,171.25806842041015L111.86865349121094,183.98436842041014C111.86865349121094,185.15576842041014,112.94075349121094,186.10536842041017,114.26335349121094,186.10536842041017C115.58595349121094,186.10536842041017,116.65805349121094,185.15576842041014,116.65805349121094,183.98436842041014L116.65805349121094,171.25806842041015L128.63175349121093,171.25806842041015C131.27695349121095,171.25806842041015,133.42125349121093,169.35876842041017,133.42125349121093,167.01596842041016L133.42125349121093,130.95806842041014C133.42125349121093,128.61516842041016,131.27695349121095,126.71596842041015,128.63175349121093,126.71596842041015L116.65805349121094,126.71596842041015L116.65805349121094,113.98961842041015C116.65805349121094,112.81819642041016,115.58595349121094,111.86856842041016,114.26335349121094,111.86856842041016Z" fill-rule="evenodd" fill="#F92855" fill-opacity="1"/></g><g><path d="M166.94756903686525,95.10540771484375C165.62496903686522,95.10540771484375,164.55286903686525,96.05503571484375,164.55286903686525,97.22645771484375L164.55286903686525,109.95280771484374L152.57913903686523,109.95280771484374C149.93398903686523,109.95280771484374,147.78966903686523,111.85200771484375,147.78966903686523,114.19490771484375L147.78966903686523,150.25280771484375C147.78966903686523,152.59560771484377,149.93398903686523,154.49490771484375,152.57913903686523,154.49490771484375L164.55286903686525,154.49490771484375L164.55286903686525,167.22120771484373C164.55286903686525,168.39260771484373,165.62496903686522,169.34220771484377,166.94756903686525,169.34220771484377C168.27016903686524,169.34220771484377,169.34226903686525,168.39260771484373,169.34226903686525,167.22120771484373L169.34226903686525,154.49490771484375L181.31596903686523,154.49490771484375C183.96116903686524,154.49490771484375,186.10546903686523,152.59560771484377,186.10546903686523,150.25280771484375L186.10546903686523,114.19490771484375C186.10546903686523,111.85200771484375,183.96116903686524,109.95280771484374,181.31596903686523,109.95280771484374L169.34226903686525,109.95280771484374L169.34226903686525,97.22645771484375C169.34226903686525,96.05503571484375,168.27016903686524,95.10540771484375,166.94756903686525,95.10540771484375Z" fill-rule="evenodd" fill="#2DC08E" fill-opacity="1"/></g></g></g></g></svg>