<svg xmlns="http://www.w3.org/2000/svg" xmlns:xlink="http://www.w3.org/1999/xlink" fill="none" version="1.1" width="260" height="260" viewBox="0 0 300 300"><defs><linearGradient x1="1" y1="0.5" x2="0" y2="0.5" id="master_svg0_85_04296"><stop offset="0%" stop-color="#26A69A" stop-opacity="0.8999999761581421"/><stop offset="100%" stop-color="#EF5350" stop-opacity="0.8999999761581421"/></linearGradient></defs><g style="mix-blend-mode:passthrough"><g><g style="mix-blend-mode:passthrough"><g style="mix-blend-mode:passthrough"><path d="M114.496,169.9267955871582L114.496,153.2341475871582C114.496,152.8354245871582,114.08840000000001,152.5121955871582,113.5855,152.5121955871582C113.0826,152.5121955871582,112.67490000000001,152.8354245871582,112.67490000000001,153.2341475871582L112.67490000000001,169.9267955871582L96.73984,169.9267955871582C92.46524,169.9267955871582,89,172.6741955871582,89,176.0633955871582L89,233.4487955871582C89,236.83799558715822,92.46524,239.5853955871582,96.73984,239.5853955871582L130.4309,239.5853955871582C134.7055,239.5853955871582,138.1707,236.83799558715822,138.1707,233.4487955871582L138.1707,176.0633955871582C138.1707,172.6741955871582,134.7055,169.9267955871582,130.4309,169.9267955871582L114.496,169.9267955871582ZM114.496,239.5853955871582L114.496,256.2781955871582C114.496,256.6771955871582,114.08840000000001,257.0001955871582,113.5855,257.0001955871582C113.0826,257.0001955871582,112.67490000000001,256.6771955871582,112.67490000000001,256.2781955871582L112.67490000000001,239.5853955871582L114.496,239.5853955871582Z" fill-rule="evenodd" fill="#EF5350" fill-opacity="1"/></g><g style="mix-blend-mode:passthrough"><path d="M185.1789299926758,148.4146L185.1789299926758,131.721952C185.1789299926758,131.323229,184.7713299926758,131,184.26842999267578,131C183.7655299926758,131,183.3578299926758,131.323229,183.3578299926758,131.721952L183.3578299926758,148.4146L167.42276999267577,148.4146C163.14816999267578,148.4146,159.68292999267578,151.162,159.68292999267578,154.5512L159.68292999267578,211.9366C159.68292999267578,215.32580000000002,163.14816999267578,218.07319999999999,167.42276999267577,218.07319999999999L201.1138299926758,218.07319999999999C205.38842999267578,218.07319999999999,208.8536299926758,215.32580000000002,208.8536299926758,211.9366L208.8536299926758,154.5512C208.8536299926758,151.162,205.38842999267578,148.4146,201.1138299926758,148.4146L185.1789299926758,148.4146ZM185.1789299926758,218.07319999999999L185.1789299926758,234.76600000000002C185.1789299926758,235.16500000000002,184.7713299926758,235.488,184.26842999267578,235.488C183.7655299926758,235.488,183.3578299926758,235.16500000000002,183.3578299926758,234.76600000000002L183.3578299926758,218.07319999999999L185.1789299926758,218.07319999999999Z" fill-rule="evenodd" fill="#26A69A" fill-opacity="1"/></g></g><g><path d="M81.5116,285.904C81.08959999999999,285.904,80.664,285.872,80.2347,285.808C57.5415,282.42,41.7821,273.911,33.38945,260.504C23.54893,244.785,27.743429,228.009,28.74749,224.607C43.5319,151.969,73.3664,127.157,93.1202,110.726C97.6275,106.9753,101.5201,103.7376,104.3904,100.596C105.1373,99.7778,105.7356,98.9165,106.1984,98.0179C103.0955,98.94,101.4059,99.5774,101.3238,99.6088C97.4421,101.112,93.0439,99.2491,91.5014,95.4485C89.96260000000001,91.648,91.8507,87.3488,95.7323,85.835C96.2003,85.6521,99.3583,84.4455,104.8198,82.9267C101.0674,75.2598,93.9407,67.202,87.616,60.6528L86.2918,59.2744C76.9497,49.497,71.9003,24.613500000000002,70.98349999999999,19.72303C70.45150000000001,16.88472,71.4755,13.98075,73.68289999999999,12.06852C75.8909,10.155879,78.9602,9.514042,81.7736,10.37662C97.0273,15.06052,101.6111,15.51644,110.7386,16.42473C115.3623,16.88421,118.7274,20.927,118.2545,25.4506C117.7852,29.9742,113.6598,33.2761,109.036,32.8095C102.335,32.1434,97.5766,31.6055,90.7265,29.9849C92.9565,37.6679,95.8195,45.1301,98.577,48.0188L99.8394,49.3331C105.0304,54.7088,116.0798,66.1522,121.4075,79.1781C134.74599999999998,76.784,152.703,74.9353,173.929,76.1191C175.216,73.1174,177.077,70.2466,179.491,67.5629C179.87,67.1426,180.288,66.7615,180.746,66.4231C191.864,58.2414,203.963,49.1301,210.825,43.7089C205.666,44.2396,199.518,43.5628,192.781,39.5486C190.725,38.3233,188.742,37.069500000000005,186.796,35.8371C176.035,29.0267,169.978,25.585900000000002,160.527,28.1042C156.041,29.2974,151.421,26.7079,150.203,22.319699999999997C148.98399999999998,17.93142,151.62900000000002,13.40423,156.11,12.211C173.248,7.644880000000001,185.3,15.27346,195.929,22.0016L195.929,22.0016C197.75,23.1532,199.605,24.3286,201.526,25.4755C206.532,28.4604,209.919,27.5343,215.466,25.639400000000002C218.73,24.5245,222.437,23.259999999999998,226.468,23.8014C230.971,24.403399999999998,234.38,26.9501,235.824,30.7899C238.389,37.6145,233.343,45.1621,228.658,50.2877C225.869,53.3372,211.76,64.054,200.59,72.37819999999999C202.114,71.89500000000001,203.741,71.63380000000001,205.43,71.63380000000001C209.741,71.63380000000001,213.647,73.33539999999999,216.485,76.09C228.397,72.9699,235.7,64.64959999999999,235.803,64.5315C238.498,61.4006,243.271,61.0017,246.469,63.6339C249.667,66.2697,250.078,70.9465,247.386,74.0774C246.931,74.6088,240.732,81.6716,230.192,86.7961C240.835,91.8154,251.473,100.3366,255.116,114.74C256.12,118.715,253.646,122.733,249.587,123.716C248.975,123.862,248.364,123.933,247.76,123.933C244.363,123.933,241.274,121.675,240.419,118.302C237.446,106.5442,226.304,100.5224,216.918,97.4866C214.052,100.4974,209.965,102.3801,205.43,102.3801C198.782,102.3801,193.1,98.3355,190.809,92.6225C190.597,92.5939,190.384,92.5656,190.172,92.5377C193.763,100.0674,202.537,107.1657,205.924,109.4152C206.321,109.6788,206.71,109.9851,207.056,110.313C231.753,133.611,249.903,158.562,260.998,184.479C262.796,188.675,260.777,193.501,256.491,195.257C255.465,195.682,254.362,195.902,253.246,195.902C249.957,195.902,246.836,194.003,245.486,190.847C235.355,167.182,218.668,144.24,195.88,122.644C191.842,119.872,174.902,107.3661,172.16,90.9047C152.897,89.9457,136.527,91.65,124.3929,93.7978C124.2305,99.8647,122.0868,105.922,116.9303,111.57C113.2887,115.556,108.785,119.307,104.0121,123.275C94.4699,131.212,83.1642,140.617,72.542,156.45C61.9197,172.283,51.981,194.545,45.1726,228.197C45.1035,228.532,45.0162,228.864,44.9071,229.188C44.8852,229.255,41.08,241.43,47.8283,252.044C53.5471,261.03499999999997,65.3012,266.912,82.7704,269.519C87.3614,270.203,90.51910000000001,274.406,89.8206,278.901C89.18039999999999,282.983,85.59700000000001,285.904,81.5116,285.904ZM134.993,31.3987C129.55200000000002,31.3987,125.1412,27.0802,125.1412,21.7531C125.1412,16.42596,129.55200000000002,12.10746,134.993,12.10746C140.433,12.10746,144.844,16.42596,144.844,21.7531C144.844,27.0802,140.433,31.3987,134.993,31.3987ZM204.381,80.5758L206.623,84.4902C208.113,84.146,209.631,84.089,211.083,84.3226C212.174,84.5669,213.064,85.2293,213.549,86.1567C214.156,87.12,214.265,88.3228,213.851,89.4633C213.341,90.7058,212.414,91.7931,211.219,92.5497L212.453,94.7049L210.85,95.6113L209.653,93.522C208.197,94.3577,206.577,94.8614,204.939,94.9881L203.426,92.347C204.236,92.3995,205.064,92.3201,205.874,92.1121C206.734,91.9458,207.576,91.6634,208.372,91.2741L206.211,87.5013C204.749,87.8755,203.249,87.9328,201.829,87.6686C200.711,87.3844,199.803,86.6867,199.301,85.7261C198.718,84.7359,198.624,83.522,199.041,82.3704C199.471,81.1352,200.357,80.0452,201.532,79.308L200.481,77.4735L202.084,76.5671L203.114,78.364C204.309,77.6797,205.623,77.2308,206.966,77.0481L208.438,79.6184C207.056,79.6434,205.667,79.9713,204.381,80.5758ZM202.066,83.9448Q202.668,84.9965,204.693,84.8259L202.796,81.5152Q201.347,82.6903,202.066,83.9448ZM208.141,87.1407L209.957,90.3099L209.959,90.3146Q211.489,89.144,210.77,87.8895Q210.187,86.8708,208.141,87.1407ZM252.155,212.411C252.155,217.738,256.56600000000003,222.057,262.007,222.057C267.447,222.057,271.858,217.738,271.858,212.411C271.858,207.084,267.447,202.766,262.007,202.766C256.56600000000003,202.766,252.155,207.084,252.155,212.411ZM137.535,289.405C134.851,289.405,132.17700000000002,289.387,129.514,289.348C124.8682,289.28,121.1575,285.544,121.2266,280.992C121.2957,276.443,125.141,272.743,129.761,272.878C179.626,273.583,229.185,267.532,234.911,265.765C249.001,260.839,256.178,251.531,256.178,238.132C256.178,233.583,259.94399999999996,229.896,264.589,229.896C269.235,229.896,273,233.583,273,238.132C273,258.345,261.155,274.078,240.503,281.302C233.038,283.913,184.119,289.405,137.535,289.405ZM104.7146,290C99.2738,290,94.8632,285.682,94.8632,280.354C94.8632,275.027,99.2738,270.709,104.7146,270.709C110.1554,270.709,114.5661,275.027,114.5661,280.354C114.5661,285.682,110.1554,290,104.7146,290Z" fill-rule="evenodd" fill="url(#master_svg0_85_04296)" fill-opacity="1"/></g></g></g></svg>