<svg xmlns="http://www.w3.org/2000/svg" xmlns:xlink="http://www.w3.org/1999/xlink" fill="none" version="1.1" width="280" height="280" viewBox="0 0 280 280"><defs><linearGradient x1="0" y1="0.5" x2="1" y2="0.5" id="master_svg0_768_1759"><stop offset="0%" stop-color="#F92855" stop-opacity="1"/><stop offset="100%" stop-color="#2DC08E" stop-opacity="1"/></linearGradient></defs><g><g><g><path d="M163.761,19.842280000000002L260.158,116.239Q264.98900000000003,121.07,267.539,127.358Q270,133.42700000000002,270,140Q270,146.573,267.539,152.642Q264.98900000000003,158.93,260.158,163.761L213.572,210.347Q212.45,211.658,211.214,212.894Q209.978,214.13,208.667,215.252L163.761,260.158Q158.93,264.98900000000003,152.642,267.539Q146.573,270,140,270Q133.42700000000002,270,127.358,267.539Q121.07,264.98900000000003,116.239,260.158L71.3335,215.253Q70.0221,214.131,68.7859,212.894Q67.5496,211.658,66.4276,210.347L19.842280000000002,163.761Q15.01121,158.93,12.46106,152.642Q10,146.573,10,140Q10,133.42700000000002,12.46106,127.358Q15.011199999999999,121.07,19.842280000000002,116.239L116.239,19.842280000000002Q121.07,15.011199999999999,127.358,12.46106Q133.42700000000002,10,140,10Q146.573,10,152.642,12.46106Q158.93,15.011199999999999,163.761,19.842280000000002ZM154.257,29.3468L182.64,57.7301Q181.489,57.6711,180.324,57.6711L99.6756,57.6711Q98.5112,57.6711,97.3599,57.7301L125.743,29.3468Q128.647,26.4431,132.41,24.917299999999997Q136.049,23.441499999999998,140,23.441499999999998Q143.951,23.441499999999998,147.59,24.917299999999997Q151.353,26.4431,154.257,29.3468ZM76.3447,201.255L80.4255,205.335Q83.8138,208.143,87.9056,209.874Q93.5182,212.248,99.6756,212.248L180.324,212.248Q186.482,212.248,192.094,209.874Q196.186,208.143,199.574,205.335L203.655,201.255Q206.463,197.866,208.194,193.775Q210.568,188.162,210.568,182.005L210.568,101.3558Q210.568,95.1984,208.194,89.5858Q205.899,84.1597,201.71,79.9706Q197.52,75.7815,192.094,73.4865Q186.482,71.1125,180.324,71.1125L99.6756,71.1125Q93.5182,71.1125,87.9057,73.4865Q82.4795,75.7815,78.2904,79.9706Q74.1014,84.1597,71.8063,89.5858Q69.4324,95.1984,69.4324,101.3558L69.4324,182.004Q69.4324,188.162,71.8063,193.774Q73.537,197.866,76.3447,201.255ZM250.653,154.257L224.009,180.901L224.009,101.3558Q224.009,100.1913,223.95,99.04L250.653,125.743Q253.557,128.647,255.083,132.41Q256.55899999999997,136.049,256.55899999999997,140Q256.55899999999997,143.951,255.083,147.59Q253.557,151.353,250.653,154.257ZM29.3468,125.743L56.0499,99.0401Q55.9909,100.1914,55.9909,101.3558L55.9909,180.901L29.3468,154.257Q26.4431,151.353,24.917299999999997,147.59Q23.441499999999998,143.951,23.441499999999998,140Q23.441499999999998,136.049,24.917299999999997,132.41Q26.4431,128.647,29.3468,125.743ZM125.743,250.653L100.7793,225.689L179.221,225.689L154.257,250.653Q151.353,253.557,147.59,255.083Q143.951,256.55899999999997,140,256.55899999999997Q136.049,256.55899999999997,132.41,255.083Q128.647,253.557,125.743,250.653Z" fill-rule="evenodd" fill="url(#master_svg0_768_1759)" fill-opacity="1"/></g><g><g><path d="M110.81784345703124,108.16497421264648C109.35274345703125,108.16497421264648,108.16494345703126,109.21698421264648,108.16494345703126,110.51470421264648L108.16494345703126,124.61307421264648L94.90038345703125,124.61307421264648C91.97004345703125,124.61307421264648,89.59454345703125,126.71707421264648,89.59454345703125,129.3124742126465L89.59454345703125,169.25787421264647C89.59454345703125,171.8533742126465,91.97004345703125,173.95737421264647,94.90038345703125,173.95737421264647L108.16494345703126,173.95737421264647L108.16494345703126,188.05567421264647C108.16494345703126,189.3534742126465,109.35274345703125,190.40547421264648,110.81784345703124,190.40547421264648C112.28304345703125,190.40547421264648,113.47084345703125,189.3534742126465,113.47084345703125,188.05567421264647L113.47084345703125,173.95737421264647L126.73544345703125,173.95737421264647C129.66574345703125,173.95737421264647,132.04124345703124,171.8533742126465,132.04124345703124,169.25787421264647L132.04124345703124,129.3124742126465C132.04124345703124,126.71707421264648,129.66574345703125,124.61307421264648,126.73544345703125,124.61307421264648L113.47084345703125,124.61307421264648L113.47084345703125,110.51470421264648C113.47084345703125,109.21698421264648,112.28304345703125,108.16497421264648,110.81784345703124,108.16497421264648Z" fill-rule="evenodd" fill="#F92855" fill-opacity="1"/></g><g><path d="M169.18204786376953,89.59454345703125C167.71694786376952,89.59454345703125,166.52914786376954,90.64655345703125,166.52914786376954,91.94427345703124L166.52914786376954,106.04264345703125L153.26458786376952,106.04264345703125C150.33424786376952,106.04264345703125,147.95874786376953,108.14664345703125,147.95874786376953,110.74204345703126L147.95874786376953,150.68744345703124C147.95874786376953,153.28294345703125,150.33424786376952,155.38694345703124,153.26458786376952,155.38694345703124L166.52914786376954,155.38694345703124L166.52914786376954,169.48524345703123C166.52914786376954,170.78304345703125,167.71694786376952,171.83504345703125,169.18204786376953,171.83504345703125C170.64724786376954,171.83504345703125,171.83504786376955,170.78304345703125,171.83504786376955,169.48524345703123L171.83504786376955,155.38694345703124L185.09964786376952,155.38694345703124C188.02994786376954,155.38694345703124,190.40544786376952,153.28294345703125,190.40544786376952,150.68744345703124L190.40544786376952,110.74204345703126C190.40544786376952,108.14664345703125,188.02994786376954,106.04264345703125,185.09964786376952,106.04264345703125L171.83504786376955,106.04264345703125L171.83504786376955,91.94427345703124C171.83504786376955,90.64655345703125,170.64724786376954,89.59454345703125,169.18204786376953,89.59454345703125Z" fill-rule="evenodd" fill="#2DC08E" fill-opacity="1"/></g></g></g></g></svg>