<svg xmlns="http://www.w3.org/2000/svg" xmlns:xlink="http://www.w3.org/1999/xlink" fill="none" version="1.1" width="100" height="100" viewBox="0 0 100 100"><g><g style="mix-blend-mode:passthrough"><g><g style="mix-blend-mode:passthrough"></g><g style="mix-blend-mode:passthrough"><g><g style="mix-blend-mode:passthrough"><rect x="16" y="38" width="27" height="40" rx="2" fill="#EB5454" fill-opacity="1"/></g><g style="mix-blend-mode:passthrough"><path d="M29 28.5C29 28.2238576250846 29.2238576250846 28 29.5 28L29.5 28C29.7761423749154 28 30 28.2238576250846 30 28.5L30 38C30 38 30 38 30 38L29 38C29 38 29 38 29 38Z" fill="#EB5454" fill-opacity="1"/></g><g style="mix-blend-mode:passthrough"><path d="M29 78C29 78 29 78 29 78L30 78C30 78 30 78 30 78L30 87.5C30 87.7761423749154 29.7761423749154 88 29.5 88L29.5 88C29.2238576250846 88 29 87.7761423749154 29 87.5Z" fill="#EB5454" fill-opacity="1"/></g></g></g><g style="mix-blend-mode:passthrough"><g><g style="mix-blend-mode:passthrough"><rect x="57" y="24" width="27" height="40" rx="2" fill="#47B262" fill-opacity="1"/></g><g style="mix-blend-mode:passthrough"><path d="M70 14.5C70 14.223857625084603 70.2238576250846 14 70.5 14L70.5 14C70.7761423749154 14 71 14.223857625084603 71 14.5L71 24C71 24 71 24 71 24L70 24C70 24 70 24 70 24Z" fill="#47B262" fill-opacity="1"/></g><g style="mix-blend-mode:passthrough"><path d="M70 64C70 64 70 64 70 64L71 64C71 64 71 64 71 64L71 73.5C71 73.7761423749154 70.7761423749154 74 70.5 74L70.5 74C70.2238576250846 74 70 73.7761423749154 70 73.5Z" fill="#47B262" fill-opacity="1"/></g></g></g></g></g></g></svg>